<svg xmlns="http://www.w3.org/2000/svg" viewBox="0 0 480 480" fill-rule="evenodd"><path d="M239.5 370L146.57 240.89A114.5 114.5 0 1 1 332.43 240.89Z" fill="#E51D20"></path><circle cx="239.5" cy="385.5" r="11" fill="#e51d20"></circle><path d="M156 370.59C150.82 371.13 151.28 375.53 148.91 378C149.28 378.56 149.15 379.15 150 379.69C150.85 380.22 149.67 380.27 154 381.23C158.33 382.19 171.92 384.99 176 385.45C180.08 385.91 177.44 385.24 178.47 384C179.5 382.76 181.59 379.33 182.18 378C182.77 376.67 182.37 376.54 182.01 376C181.64 375.46 184.33 375.68 180 374.78C175.67 373.88 161.18 370.05 156 370.59Z" fill="#e51d20"></path><path d="M193 377.82C191.3 379.06 189.45 383.47 188.78 385C188.12 386.53 188.7 386.5 188.99 387C189.29 387.5 186.89 387.42 190.55 388C194.22 388.58 206.76 390.13 211 390.45C215.24 390.77 214.92 390.85 216 389.94C217.08 389.03 217.15 386.49 217.45 385C217.75 383.51 217.89 381.86 217.82 381C217.74 380.14 220.14 380.43 217 379.85C213.86 379.28 203 377.89 199 377.55C195 377.21 194.7 376.57 193 377.82Z" fill="#e51d20"></path><path d="M105 338.81C103.63 339.55 102.35 341.3 101.78 343C101.2 344.7 101.38 347.33 101.55 349C101.72 350.67 101.97 351.5 102.8 353C103.64 354.5 105.5 356.97 106.54 358C107.57 359.03 106.72 359.66 109 359.16C111.28 358.66 118.33 356.03 120.24 355C122.14 353.97 120.88 354.17 120.43 353C119.98 351.83 117.96 350 117.55 348C117.14 346 117.85 343.33 118 340.99C115.33 340.18 112.17 338.91 110 338.55C107.83 338.18 106.37 338.07 105 338.81Z" fill="#e51d20"></path><path d="M127 358.84C122.17 358.21 118.85 361.79 117 362.82C115.15 363.84 116.26 364.27 115.89 365C119.92 367.41 124.31 370.49 128 372.23C131.69 373.97 135.33 375.57 138 375.45C140.67 375.32 142.49 372.71 144 371.47C145.51 370.23 146.05 369.16 147.08 368C146.72 367.52 149.35 368.08 146 366.55C142.65 365.03 131.83 359.46 127 358.84Z" fill="#e51d20"></path><path d="M171 309.78C166.67 310.46 152.46 313.57 148 314.77C143.54 315.98 145.49 316.26 144.24 317C146.49 319.28 145.87 323.46 151 323.83C156.13 324.2 170.68 320.19 175 319.22C179.32 318.25 176.63 318.54 176.92 318C177.2 317.46 177.2 317.22 176.72 316C176.23 314.78 174.95 311.73 174 310.69C173.05 309.65 175.33 309.1 171 309.78Z" fill="#e94346"></path><path d="M132 319.78C128.5 321.27 117.41 326.89 114 328.76C110.59 330.63 112.01 330.29 111.54 331C111.08 331.71 111.31 332.33 111.2 333C114.13 333.82 117.87 335.04 120 335.45C122.13 335.86 120.67 336.74 124 335.45C127.33 334.16 137.15 329.26 140 327.69C142.85 326.11 140.72 326.56 141.09 326C139.56 324.33 137.51 322.03 136.49 321C135.48 319.97 135.75 320.01 135 319.81C134.25 319.6 135.5 318.28 132 319.78Z" fill="#e83437"></path><path d="M271 379.78C269.17 380.06 268.74 380.83 268 381.53C267.26 382.24 266.75 383.09 266.55 384C266.35 384.91 266.4 386.13 266.81 387C267.22 387.87 267.13 388.78 269 389.19C270.87 389.6 275.8 389.98 278 389.45C280.2 388.92 281.49 387.08 282.19 386C282.89 384.92 282.72 384.03 282.19 383C281.66 381.97 280.87 380.35 279 379.81C277.13 379.27 272.83 379.49 271 379.78Z" fill="#f07e80"></path><path d="M299 376.78C297.09 377.31 296.08 378.8 295.55 380C295.02 381.2 295.57 383.13 295.82 384C296.06 384.87 296.14 384.82 297 385.23C297.86 385.64 299.33 386.45 301 386.45C302.67 386.44 305.63 385.77 307 385.19C308.37 384.62 308.83 384.03 309.19 383C309.56 381.97 309.56 380.03 309.19 379C308.83 377.97 308.7 377.18 307 376.81C305.3 376.44 300.91 376.24 299 376.78Z" fill="#f18284"></path><path d="M354 324.81C352.47 325.17 351.34 326.97 350.81 328C350.28 329.03 350.61 330.26 350.81 331C351.01 331.74 350.8 331.77 352 332.47C353.2 333.16 356.16 335.08 358 335.16C359.84 335.25 362.04 333.86 363.06 333C364.09 332.14 364.17 330.84 364.16 330C364.15 329.16 363.69 328.64 363 327.94C362.31 327.24 361.5 326.33 360 325.8C358.5 325.28 355.53 324.44 354 324.81Z" fill="#f18587"></path><path d="M332 315.78C330.47 316.15 328.39 317.8 327.81 319C327.23 320.2 327.5 321.92 328.54 323C329.57 324.08 332.09 325.27 334 325.45C335.91 325.63 338.77 324.8 340 324.06C341.23 323.32 341.32 321.84 341.4 321C341.48 320.16 341.2 319.7 340.46 319C339.73 318.3 338.41 317.31 337 316.77C335.59 316.24 333.53 315.41 332 315.78Z" fill="#f18587"></path><path d="M327 370.77C325.5 371.26 322.86 372.5 322 373.7C321.14 374.91 321.15 376.88 321.82 378C322.48 379.12 324.3 380.25 326 380.45C327.7 380.65 330.63 379.77 332 379.2C333.37 378.62 333.83 378.03 334.19 377C334.56 375.97 334.72 374.04 334.18 373C333.65 371.96 332.2 371.15 331 370.78C329.8 370.41 328.5 370.29 327 370.77Z" fill="#f18284"></path><path d="M350 362.78C348.45 362.86 346.6 364.3 345.69 365C344.78 365.7 344.67 366.12 344.55 367C344.44 367.88 344.26 369.36 345 370.27C345.74 371.18 347.5 372.29 349 372.45C350.5 372.61 352.76 371.98 354 371.24C355.24 370.5 356.28 369.12 356.45 368C356.61 366.88 356.07 365.4 355 364.53C353.93 363.66 351.55 362.7 350 362.78Z" fill="#f18486"></path><path d="M370 338.78C368.8 339.15 367.35 339.96 366.82 341C366.28 342.04 366.28 343.92 366.81 345C367.34 346.08 368.63 347.13 370 347.49C371.37 347.86 373.8 347.61 375 347.2C376.2 346.78 376.83 346.03 377.19 345C377.56 343.97 377.72 342.04 377.18 341C376.65 339.96 375.2 339.15 374 338.78C372.8 338.41 371.2 338.41 370 338.78Z" fill="#f28b8d"></path><path d="M365 352.78C363.8 353.31 362.19 354.8 361.78 356C361.37 357.2 361.83 359.08 362.54 360C363.24 360.92 364.54 361.5 366 361.5C367.46 361.5 370.24 360.58 371.31 360C372.39 359.42 372.33 358.88 372.45 358C372.56 357.12 372.57 355.6 372 354.73C371.43 353.86 370.17 353.1 369 352.78C367.83 352.45 366.2 352.24 365 352.78Z" fill="#f18486"></path><path d="M309 310.78C307.97 311.15 306.35 311.96 305.82 313C305.28 314.04 305.44 315.97 305.81 317C306.17 318.03 306.8 318.83 308 319.19C309.2 319.56 311.8 319.56 313 319.19C314.2 318.83 314.83 318.03 315.19 317C315.56 315.97 315.72 314.04 315.18 313C314.65 311.96 313.03 311.15 312 310.78C310.97 310.41 310.03 310.41 309 310.78Z" fill="#f18688"></path><path d="M239 109.67C234 119.13 226.83 133.19 224 138.06C221.17 142.93 222.83 138.85 222 138.88C221.17 138.9 221.33 139.23 219 138.23C216.67 137.23 210.06 133.59 208 132.89C205.94 132.18 205.42 127.15 206.66 134C207.9 140.85 214.06 166.62 215.45 174C216.84 181.38 215.41 177.37 215 178.27C214.59 179.17 213.67 179.36 213 179.4C212.33 179.43 214.17 181.92 211 178.46C207.83 175.01 199.67 165.26 194 158.66C193.33 158.97 192.63 158.38 192 159.6C191.37 160.82 191.06 164.2 190.22 166C189.39 167.8 190.87 170.33 187 170.43C183.13 170.53 170.52 167.01 167 166.61C163.48 166.2 164.97 163.77 165.88 168C166.79 172.23 171.6 187.63 172.45 192C173.3 196.37 172.54 193.23 171 194.23C169.46 195.23 164.52 197.21 163.18 198C161.84 198.79 157.46 194.25 162.93 199C168.4 203.75 189.49 220.91 196 226.53C202.51 232.15 200.96 231.13 202 232.7C203.04 234.28 202.89 233.23 202.23 236C201.56 238.77 199.41 244.88 198 249.32C199.33 249.36 197 250.25 202 249.45C207 248.66 222.83 245.44 228 244.55C233.17 243.66 231.66 244.04 233 244.12C234.34 244.2 235.27 244.19 236.02 245C236.77 245.81 237.4 243.17 237.5 249C237.59 254.83 236.49 274.6 236.58 280C236.66 285.4 237.43 281.17 238 281.42C238.57 281.67 239.26 281.73 240 281.49C240.74 281.26 242.17 285.42 242.42 280C242.67 274.58 241.42 254.83 241.5 249C241.59 243.17 242.19 245.86 242.94 245C243.69 244.14 240.32 243.09 246 243.84C251.68 244.58 271.2 248.59 277 249.45C282.8 250.31 279.54 249.15 280.81 249C279.41 244.33 277.11 237.83 276.6 235C276.09 232.17 271.18 238 277.76 232C284.34 226 303.31 210 316.08 199C315.72 198.44 316.35 198.11 315 197.31C313.65 196.52 309.41 195.12 308 194.23C306.59 193.35 305.7 196.37 306.55 192C307.41 187.63 312.21 172.23 313.12 168C314.03 163.77 315.19 166.2 312 166.61C308.81 167.01 297.5 169.86 294 170.45C290.5 171.05 292.29 172.09 291 170.18C289.71 168.28 287.27 160.91 286.27 159C285.27 157.09 288.17 155.36 285 158.69C281.83 162.03 270.76 175.74 267.26 179C263.76 182.26 264.62 179.1 264 178.27C263.38 177.43 262.16 181.38 263.55 174C264.94 166.62 271.1 140.85 272.34 134C273.58 127.15 273.06 132.18 271 132.89C268.94 133.59 262.55 137.37 260 138.22C257.45 139.08 256.9 138.54 255.7 138C254.51 137.46 255.21 139.5 252.8 135C250.4 130.5 243.56 115.22 241.26 111C238.96 106.78 239.75 110.11 239 109.67Z" fill="#fff"></path></svg>
